# xmcd
#
# Track frame offsets: 
#        150
#        11126
#        24608
#        37334
#        50884
#        62987
#        76152
#        89010
#        101019
#        113136
#        127326
#        143033
#        155563
#        167194
#        181069
#        197392
#        210503
#        223137
#        234540
#        242981
#        245998
#        257311
#        278934
#
# Disc length: 3897 seconds
#
# Revision: 1
# Processed by: cddbd v1.5.2PL0 Copyright (c) Steve Scherf et al.
# Submitted via: ExactAudioCopyFreeDBPlugin 1.0
#
DISCID=600f3717
DTITLE=Tammi Terrell - Come On and See Me:  The Complete Solo Collecti
DTITLE=on
DYEAR=2010
DGENRE=Rhythm and Blues
TTITLE0=Ain't No Mountain High Enough
TTITLE1=All I Do is Think About You
TTITLE2=Slow Down
TTITLE3=I Gotta Find a Way (To Get You Back)
TTITLE4=Oh How I'd Miss You
TTITLE5=Lone Lonely Town
TTITLE6=You Ain't Livin' 'Till You're Lovin' (stereo version)
TTITLE7=Give in You Just Can't Win (stereo version)
TTITLE8=When Love Comes Knocking at My Heart (stereo version)
TTITLE9=Memory Chest (stereo version)
TTITLE10=That's How It Is (Since You've Been Gone) (stereo version)
TTITLE11=More, More, More (stereo version)
TTITLE12=Two Can Have a Party (stereo version)
TTITLE13=My Heart (stereo version)
TTITLE14=Don't Let Me Be Lonely (stereo version)
TTITLE15=Kissing in the Shadows
TTITLE16=Beware of a Stranger
TTITLE17=It's Been a Long Time Happenin'
TTITLE18=Almost Like Being in Love (live)
TTITLE19=Stage Dialogue with Emcee Scott Regan (live)
TTITLE20=I Can't Believe You Love Me (live)
TTITLE21=What a Difference a Day Makes - Runnin' Out of Fools - Tell M
TTITLE21=e the Truth - Baby Love (live)
TTITLE22=Come On and See Me (live)
EXTD=
EXTT0=
EXTT1=
EXTT2=
EXTT3=
EXTT4=
EXTT5=
EXTT6=
EXTT7=
EXTT8=
EXTT9=
EXTT10=
EXTT11=
EXTT12=
EXTT13=
EXTT14=
EXTT15=
EXTT16=
EXTT17=
EXTT18=
EXTT19=
EXTT20=
EXTT21=
EXTT22=
PLAYORDER=
